<svg width="66" height="62" viewBox="0 0 66 62" fill="none" xmlns="http://www.w3.org/2000/svg">
<path d="M46.3299 39.27C46.3299 40.35 40.3599 41.22 32.9999 41.22C25.6399 41.22 19.6699 40.35 19.6699 39.27" stroke="#474747" stroke-width="1.5" stroke-linecap="round" stroke-linejoin="round"/>
<path d="M46.3299 39.27V48.67C46.3299 49.98 40.3599 51.05 32.9999 51.05C30.0999 51.05 27.4099 50.88 25.2199 50.6C21.8599 50.17 19.6699 49.46 19.6699 48.67V39.27" stroke="#474747" stroke-width="1.5" stroke-linecap="round" stroke-linejoin="round"/>
<path d="M46.3299 49.1201V58.5201C46.3299 59.8301 40.3599 60.9001 32.9999 60.9001C25.6399 60.9001 19.6699 59.8301 19.6699 58.5201V49.1201" stroke="#474747" stroke-width="1.5" stroke-linecap="round" stroke-linejoin="round"/>
<path d="M35.9099 56.2799C35.9099 56.2799 39.8999 56.7699 43.6299 55.6699" stroke="#474747" stroke-width="1.5" stroke-linecap="round" stroke-linejoin="round"/>
<path d="M23.8699 44.8398C24.3211 44.8398 24.6599 45.1903 24.6599 45.5898C24.6599 45.9893 24.3211 46.3398 23.8699 46.3398C23.4186 46.3398 23.0798 45.9893 23.0798 45.5898C23.0798 45.1904 23.4186 44.8398 23.8699 44.8398Z" stroke="#474747"/>
<path d="M29.3899 45.1499C29.8392 45.1499 30.1799 45.5013 30.1799 45.8999C30.1799 46.2985 29.8392 46.6499 29.3899 46.6499C28.9406 46.6499 28.5999 46.2985 28.5999 45.8999C28.5999 45.5013 28.9406 45.1499 29.3899 45.1499Z" stroke="#474747"/>
<path d="M23.8699 55.1299C24.3211 55.1299 24.6599 55.4804 24.6599 55.8799C24.6599 56.2794 24.3211 56.6299 23.8699 56.6299C23.4186 56.6299 23.0798 56.2793 23.0798 55.8799C23.0798 55.4804 23.4186 55.1299 23.8699 55.1299Z" stroke="#474747"/>
<path d="M29.3899 55.4399C29.8392 55.44 30.1799 55.7914 30.1799 56.1899C30.1799 56.5885 29.8392 56.9399 29.3899 56.9399C28.9406 56.9399 28.5999 56.5886 28.5999 56.1899C28.5999 55.7913 28.9406 55.4399 29.3899 55.4399Z" stroke="#474747"/>
<path d="M35.9099 45.9601C35.9099 45.9601 39.8999 46.4501 43.6299 45.3501" stroke="#474747" stroke-width="1.5" stroke-linecap="round" stroke-linejoin="round"/>
<path d="M46.3299 29.4702V38.8702C46.3299 40.1802 40.3599 41.2502 32.9999 41.2502C25.6399 41.2502 19.6699 40.1802 19.6699 38.8702V29.4702" stroke="#474747" stroke-width="1.5" stroke-linecap="round" stroke-linejoin="round"/>
<path d="M35.9099 36.6302C35.9099 36.6302 39.8999 37.1203 43.6299 36.0203" stroke="#474747" stroke-width="1.5" stroke-linecap="round" stroke-linejoin="round"/>
<path d="M23.8699 35.4802C24.3211 35.4802 24.6599 35.8307 24.6599 36.2302C24.6599 36.6297 24.3211 36.9802 23.8699 36.9802C23.4186 36.9802 23.0798 36.6297 23.0798 36.2302C23.0798 35.8308 23.4186 35.4802 23.8699 35.4802Z" stroke="#474747"/>
<path d="M29.3899 35.7903C29.8392 35.7903 30.1799 36.1417 30.1799 36.5403C30.1799 36.9389 29.8392 37.2903 29.3899 37.2903C28.9406 37.2903 28.5999 36.9389 28.5999 36.5403C28.5999 36.1417 28.9406 35.7903 29.3899 35.7903Z" stroke="#474747"/>
<path d="M44.0499 27.6201C45.4899 28.1501 46.3299 28.7901 46.3299 29.4701C46.3299 31.3001 40.3599 32.7801 32.9999 32.7801C25.6399 32.7801 19.6699 31.3001 19.6699 29.4701C19.6699 28.8301 20.4099 28.2301 21.6799 27.7201" stroke="#474747" stroke-width="1.5" stroke-linecap="round" stroke-linejoin="round"/>
<path d="M38.0799 7.57007H27.9299C26.8254 7.57007 25.9299 8.4655 25.9299 9.57007V19.72C25.9299 20.8246 26.8254 21.72 27.9299 21.72H38.0799C39.1845 21.72 40.0799 20.8246 40.0799 19.72V9.57007C40.0799 8.4655 39.1845 7.57007 38.0799 7.57007Z" stroke="#E55939" stroke-width="1.5" stroke-linecap="round" stroke-linejoin="round"/>
<path d="M36.4099 17.05V12.22C36.4099 11.6677 35.9622 11.22 35.4099 11.22H30.5799C30.0276 11.22 29.5799 11.6677 29.5799 12.22V17.05C29.5799 17.6023 30.0276 18.05 30.5799 18.05H35.4099C35.9622 18.05 36.4099 17.6023 36.4099 17.05Z" stroke="#E55939" stroke-width="1.5" stroke-linecap="round" stroke-linejoin="round"/>
<path d="M29.5798 6.94V4.97998" stroke="#E55939" stroke-width="1.5" stroke-linecap="round" stroke-linejoin="round"/>
<path d="M33 6.94V4.97998" stroke="#E55939" stroke-width="1.5" stroke-linecap="round" stroke-linejoin="round"/>
<path d="M36.4199 6.94V4.97998" stroke="#E55939" stroke-width="1.5" stroke-linecap="round" stroke-linejoin="round"/>
<path d="M29.5798 24.2999V22.3398" stroke="#E55939" stroke-width="1.5" stroke-linecap="round" stroke-linejoin="round"/>
<path d="M33 24.2999V22.3398" stroke="#E55939" stroke-width="1.5" stroke-linecap="round" stroke-linejoin="round"/>
<path d="M36.4199 24.2999V22.3398" stroke="#E55939" stroke-width="1.5" stroke-linecap="round" stroke-linejoin="round"/>
<path d="M40.6997 11.23H42.6597" stroke="#E55939" stroke-width="1.5" stroke-linecap="round" stroke-linejoin="round"/>
<path d="M40.6997 14.6401H42.6597" stroke="#E55939" stroke-width="1.5" stroke-linecap="round" stroke-linejoin="round"/>
<path d="M40.6997 18.0601H42.6597" stroke="#E55939" stroke-width="1.5" stroke-linecap="round" stroke-linejoin="round"/>
<path d="M23.3398 11.23H25.2999" stroke="#E55939" stroke-width="1.5" stroke-linecap="round" stroke-linejoin="round"/>
<path d="M23.3398 14.6401H25.2999" stroke="#E55939" stroke-width="1.5" stroke-linecap="round" stroke-linejoin="round"/>
<path d="M23.3398 18.0601H25.2999" stroke="#E55939" stroke-width="1.5" stroke-linecap="round" stroke-linejoin="round"/>
<path d="M19.1499 11.6301H13.0699C12.7899 11.6301 12.5599 11.4001 12.5599 11.1201V8.13013C12.5599 7.85013 12.3299 7.62012 12.0499 7.62012H5.8999" stroke="#474747" stroke-width="1.5" stroke-linecap="round" stroke-linejoin="round"/>
<path d="M3.15997 9.78998C1.96997 9.78998 1 8.82 1 7.63C1 6.44 1.96997 5.46997 3.15997 5.46997C4.34997 5.46997 5.32001 6.44 5.32001 7.63C5.32001 8.82 4.34997 9.78998 3.15997 9.78998Z" stroke="#474747" stroke-width="1.5" stroke-linecap="round" stroke-linejoin="round"/>
<path d="M8.65997 19.1701C7.46997 19.1701 6.5 18.2001 6.5 17.0101C6.5 15.8201 7.46997 14.8501 8.65997 14.8501C9.84997 14.8501 10.82 15.8201 10.82 17.0101C10.82 18.2001 9.84997 19.1701 8.65997 19.1701Z" stroke="#474747" stroke-width="1.5" stroke-linecap="round" stroke-linejoin="round"/>
<path d="M19.36 17.01H10.8201" stroke="#474747" stroke-width="1.5" stroke-linecap="round" stroke-linejoin="round"/>
<path d="M46.8499 11.6301H52.9299C53.2099 11.6301 53.4399 11.4001 53.4399 11.1201V8.13013C53.4399 7.85013 53.6698 7.62012 53.9498 7.62012H60.0999" stroke="#474747" stroke-width="1.5" stroke-linecap="round" stroke-linejoin="round"/>
<path d="M62.8399 9.78998C64.0299 9.78998 64.9999 8.82 64.9999 7.63C64.9999 6.44 64.0299 5.46997 62.8399 5.46997C61.6499 5.46997 60.6799 6.44 60.6799 7.63C60.6799 8.82 61.6499 9.78998 62.8399 9.78998Z" stroke="#474747" stroke-width="1.5" stroke-linecap="round" stroke-linejoin="round"/>
<path d="M57.3399 19.1701C58.5299 19.1701 59.4999 18.2001 59.4999 17.0101C59.4999 15.8201 58.5299 14.8501 57.3399 14.8501C56.1499 14.8501 55.1799 15.8201 55.1799 17.0101C55.1799 18.2001 56.1499 19.1701 57.3399 19.1701Z" stroke="#474747" stroke-width="1.5" stroke-linecap="round" stroke-linejoin="round"/>
<path d="M46.6399 17.01H55.1799" stroke="#474747" stroke-width="1.5" stroke-linecap="round" stroke-linejoin="round"/>
<path d="M32.9999 28.28C40.533 28.28 46.6398 22.1732 46.6398 14.64C46.6398 7.10685 40.533 1 32.9999 1C25.4667 1 19.3599 7.10685 19.3599 14.64C19.3599 22.1732 25.4667 28.28 32.9999 28.28Z" stroke="#474747" stroke-width="1.5" stroke-linecap="round" stroke-linejoin="round"/>
</svg>
