<svg width="58" height="66" viewBox="0 0 58 66" fill="none" xmlns="http://www.w3.org/2000/svg">
<path d="M44.3101 49.8699C45.6101 49.8699 46.6701 48.8099 46.6701 47.5099V27.0399C46.6701 25.7399 45.6101 24.6799 44.3101 24.6799H13.4501C12.1501 24.6799 11.0901 25.7399 11.0901 27.0399V47.5099C11.0901 48.8099 12.1501 49.8699 13.4501 49.8699H44.3101Z" stroke="#474747" stroke-width="1.5" stroke-linecap="round" stroke-linejoin="round"/>
<path d="M14.6301 45.15V29.4C14.6301 28.75 15.1601 28.22 15.8101 28.22H41.9501C42.6001 28.22 43.1301 28.75 43.1301 29.4V45.15" stroke="#474747" stroke-width="1.5" stroke-linecap="round" stroke-linejoin="round"/>
<path d="M45.4101 55.1199L48.6301 63.3999C48.9301 64.1699 48.3601 65.0099 47.5301 65.0099H10.2201C9.39009 65.0099 8.8201 64.1799 9.1201 63.3999L12.3401 55.1199" stroke="#474747" stroke-width="1.5" stroke-linecap="round" stroke-linejoin="round"/>
<path d="M24.1001 61.49H33.6701" stroke="#474747" stroke-width="1.5" stroke-linecap="round" stroke-linejoin="round"/>
<path d="M18.26 54.5598H20" stroke="#474747" stroke-width="1.5" stroke-linecap="round" stroke-linejoin="round"/>
<path d="M24.3401 54.5598H26.0901" stroke="#474747" stroke-width="1.5" stroke-linecap="round" stroke-linejoin="round"/>
<path d="M30.4299 54.5598H32.1699" stroke="#474747" stroke-width="1.5" stroke-linecap="round" stroke-linejoin="round"/>
<path d="M36.51 54.5598H38.26" stroke="#474747" stroke-width="1.5" stroke-linecap="round" stroke-linejoin="round"/>
<path d="M18.26 57.48H20" stroke="#474747" stroke-width="1.5" stroke-linecap="round" stroke-linejoin="round"/>
<path d="M24.3401 57.48H26.0901" stroke="#474747" stroke-width="1.5" stroke-linecap="round" stroke-linejoin="round"/>
<path d="M30.4299 57.48H32.1699" stroke="#474747" stroke-width="1.5" stroke-linecap="round" stroke-linejoin="round"/>
<path d="M36.51 57.48H38.26" stroke="#474747" stroke-width="1.5" stroke-linecap="round" stroke-linejoin="round"/>
<path d="M22.3501 35.92C22.5201 35.82 28.5801 32.77 28.5801 32.77L34.0701 35.92L28.2101 39.07L22.3501 35.92Z" stroke="#E55939" stroke-width="1.5" stroke-linecap="round" stroke-linejoin="round"/>
<path d="M22.3501 36V42.49L28.3001 45.47V38.95" stroke="#E55939" stroke-width="1.5" stroke-linecap="round" stroke-linejoin="round"/>
<path d="M34.08 36V42.21L28.3 45.47" stroke="#E55939" stroke-width="1.5" stroke-linecap="round" stroke-linejoin="round"/>
<path d="M7 1H2C1.44772 1 1 1.44772 1 2V16.32C1 16.8723 1.44772 17.32 2 17.32H7C7.55228 17.32 8 16.8723 8 16.32V2C8 1.44772 7.55228 1 7 1Z" stroke="#E55939" stroke-width="1.5" stroke-linecap="round" stroke-linejoin="round"/>
<path d="M4.50024 3.87012C4.61401 3.87021 4.70044 3.95651 4.70044 4.07031C4.70034 4.18402 4.61394 4.27042 4.50024 4.27051C4.38644 4.27051 4.30015 4.18406 4.30005 4.07031C4.30005 3.95647 4.38638 3.87012 4.50024 3.87012Z" stroke="#E55939"/>
<path d="M4.50024 6.62012C4.60938 6.62022 4.70044 6.71186 4.70044 6.82031C4.70034 6.93402 4.61394 7.02042 4.50024 7.02051C4.39107 7.02051 4.30016 6.92873 4.30005 6.82031C4.30005 6.71181 4.39101 6.62012 4.50024 6.62012Z" stroke="#E55939"/>
<path d="M3.69995 12.8201H5.62994" stroke="#E55939" stroke-width="1.5" stroke-linecap="round" stroke-linejoin="round"/>
<path d="M4.28003 20.9399V38.1099C4.28003 38.6399 4.71002 39.0699 5.24002 39.0699H7.42003" stroke="#474747" stroke-width="1.5" stroke-linecap="round" stroke-linejoin="round"/>
<path d="M50.77 17.3201H55.77C56.3223 17.3201 56.77 16.8724 56.77 16.3201V2.00007C56.77 1.44778 56.3223 1.00007 55.77 1.00007H50.77C50.2177 1.00007 49.77 1.44778 49.77 2.00007V16.3201C49.77 16.8724 50.2177 17.3201 50.77 17.3201Z" stroke="#E55939" stroke-width="1.5" stroke-linecap="round" stroke-linejoin="round"/>
<path d="M53.2603 3.87012C53.374 3.87021 53.4604 3.95653 53.4604 4.07031C53.4604 4.184 53.374 4.27042 53.2603 4.27051C53.1465 4.27051 53.0602 4.18406 53.0601 4.07031C53.0601 3.95647 53.1464 3.87012 53.2603 3.87012Z" stroke="#E55939"/>
<path d="M53.2603 6.62012C53.3694 6.62022 53.4604 6.71187 53.4604 6.82031C53.4603 6.92867 53.3693 7.02041 53.2603 7.02051C53.1464 7.02051 53.0602 6.93406 53.0601 6.82031C53.0601 6.71181 53.151 6.62012 53.2603 6.62012Z" stroke="#E55939"/>
<path d="M54.0599 12.8201H52.1299" stroke="#E55939" stroke-width="1.5" stroke-linecap="round" stroke-linejoin="round"/>
<path d="M53.4801 20.9399V38.1099C53.4801 38.6399 53.0501 39.0699 52.5201 39.0699H50.3401" stroke="#474747" stroke-width="1.5" stroke-linecap="round" stroke-linejoin="round"/>
<path d="M28.8801 13.9702V21.8102" stroke="#474747" stroke-width="1.5" stroke-linecap="round" stroke-linejoin="round"/>
<path d="M40 3.87012H17.77C17.2177 3.87012 16.77 4.31783 16.77 4.87012V10.5801C16.77 11.1324 17.2177 11.5801 17.77 11.5801H40C40.5523 11.5801 41 11.1324 41 10.5801V4.87012C41 4.31783 40.5523 3.87012 40 3.87012Z" stroke="#474747" stroke-width="1.5" stroke-linecap="round" stroke-linejoin="round"/>
<path d="M21.4399 6.29004H23.7999" stroke="#474747" stroke-width="1.5" stroke-linecap="round" stroke-linejoin="round"/>
<path d="M21.4399 9.15015H23.7999" stroke="#474747" stroke-width="1.5" stroke-linecap="round" stroke-linejoin="round"/>
<path d="M30.1199 7.71997H36.3199" stroke="#474747" stroke-width="1.5" stroke-linecap="round" stroke-linejoin="round"/>
</svg>
