<svg width="43" height="66" viewBox="0 0 43 66" fill="none" xmlns="http://www.w3.org/2000/svg">
<path d="M6.12 46.49H2.76996C2.18996 46.49 1.70996 46.02 1.70996 45.43V2.06C1.70996 1.48 2.17996 1 2.76996 1H39.82C40.4 1 40.88 1.47 40.88 2.06V45.44C40.88 46.02 40.41 46.5 39.82 46.5H35.62" stroke="#474747" stroke-width="1.5" stroke-linecap="round" stroke-linejoin="round"/>
<path d="M6.12012 9.34009H36.4801" stroke="#474747" stroke-width="1.5" stroke-linecap="round" stroke-linejoin="round"/>
<path d="M8.38037 4.67993C8.87724 4.68013 9.27979 5.08337 9.27979 5.58032C9.27957 6.07709 8.87711 6.47954 8.38037 6.47974C7.88343 6.47974 7.48019 6.07719 7.47998 5.58032C7.47998 5.08328 7.8833 4.67993 8.38037 4.67993Z" stroke="#474747"/>
<path d="M12.8303 4.67993C13.324 4.68017 13.7297 5.08662 13.7297 5.58032C13.7295 6.07385 13.3239 6.4795 12.8303 6.47974C12.3366 6.47974 11.9301 6.07402 11.9299 5.58032C11.9299 5.08645 12.3365 4.67993 12.8303 4.67993Z" stroke="#474747"/>
<path d="M30.53 5.57983H35.6201" stroke="#474747" stroke-width="1.5" stroke-linecap="round" stroke-linejoin="round"/>
<path d="M16.1498 14.1201H7.83984C7.28756 14.1201 6.83984 14.5678 6.83984 15.1201V29.8601C6.83984 30.4124 7.28756 30.8601 7.83984 30.8601H16.1498C16.7021 30.8601 17.1498 30.4124 17.1498 29.8601V15.1201C17.1498 14.5678 16.7021 14.1201 16.1498 14.1201Z" stroke="#474747" stroke-width="1.5" stroke-linecap="round" stroke-linejoin="round"/>
<path d="M22.6899 16.3H35.7599" stroke="#474747" stroke-width="1.5" stroke-linecap="round" stroke-linejoin="round"/>
<path d="M22.6899 21.71H35.7599" stroke="#474747" stroke-width="1.5" stroke-linecap="round" stroke-linejoin="round"/>
<path d="M22.6899 27.1201H35.7599" stroke="#474747" stroke-width="1.5" stroke-linecap="round" stroke-linejoin="round"/>
<path d="M17.1901 35.26H7.29004C6.73775 35.26 6.29004 35.7077 6.29004 36.26V40.88C6.29004 41.4323 6.73775 41.88 7.29004 41.88H17.1901C17.7423 41.88 18.1901 41.4323 18.1901 40.88V36.26C18.1901 35.7077 17.7423 35.26 17.1901 35.26Z" stroke="#474747" stroke-width="1.5" stroke-linecap="round" stroke-linejoin="round"/>
<path d="M35.3102 35.26H25.4102C24.8579 35.26 24.4102 35.7077 24.4102 36.26V40.88C24.4102 41.4323 24.8579 41.88 25.4102 41.88H35.3102C35.8625 41.88 36.3102 41.4323 36.3102 40.88V36.26C36.3102 35.7077 35.8625 35.26 35.3102 35.26Z" stroke="#474747" stroke-width="1.5" stroke-linecap="round" stroke-linejoin="round"/>
<path d="M28.1498 54.1101C31.7598 56.3901 34.1699 60.4201 34.1699 65.0001H41.4799C41.4799 53.8501 32.4399 44.8101 21.2899 44.8101C10.1399 44.8101 1.10986 53.8501 1.10986 65.0001H8.41986C8.41986 57.9601 14.0799 52.2301 21.0999 52.1201" stroke="#E55939" stroke-width="1.5" stroke-linecap="round" stroke-linejoin="round"/>
<path d="M21.7599 60.75C21.7599 62.25 20.5599 63.4501 19.0599 63.4501C17.5699 63.4501 16.3599 62.25 16.3599 60.75C16.3599 59.26 17.5699 58.05 19.0599 58.05C20.5599 58.05 21.7599 59.26 21.7599 60.75Z" stroke="#E55939" stroke-width="1.5" stroke-linecap="round" stroke-linejoin="round"/>
<path d="M18.6399 58.08C19.8499 56.6 26.2299 49.78 26.2299 49.78C26.2299 49.78 22.2099 60.04 21.7499 60.74" stroke="#E55939" stroke-width="1.5" stroke-linecap="round" stroke-linejoin="round"/>
<path d="M9.70996 48.46L12.69 51.87" stroke="#E55939" stroke-width="1.5" stroke-linecap="round" stroke-linejoin="round"/>
<path d="M32.19 48.46L29.21 51.87" stroke="#E55939" stroke-width="1.5" stroke-linecap="round" stroke-linejoin="round"/>
<path d="M3.26978 57.1301L5.7998 58.3201" stroke="#E55939" stroke-width="1.5" stroke-linecap="round" stroke-linejoin="round"/>
<path d="M39.5898 57.1301L37.0498 58.3201" stroke="#E55939" stroke-width="1.5" stroke-linecap="round" stroke-linejoin="round"/>
</svg>
