<svg width="794" height="753" viewBox="0 0 794 753" fill="none" xmlns="http://www.w3.org/2000/svg">
<path d="M267.46 187.409H251.13C234.065 187.409 220.243 201.045 220.243 217.859V233.941C220.243 250.755 234.065 264.391 251.13 264.391H267.46C284.524 264.391 298.346 250.755 298.346 233.941V217.859C298.346 201.045 284.524 187.409 267.46 187.409ZM267.46 488.609H251.13C234.065 488.609 220.243 502.245 220.243 519.059V535.141C220.243 551.955 234.065 565.591 251.13 565.591H267.46C284.524 565.591 298.346 551.955 298.346 535.141V519.059C298.346 502.245 284.524 488.609 267.46 488.609ZM114.678 338.009H30.8866C13.8225 338.009 0 351.645 0 368.459V384.541C0 401.355 13.8225 414.991 30.8866 414.991H114.739C131.803 414.991 145.626 401.355 145.626 384.541V368.459C145.626 351.645 131.803 338.009 114.739 338.009M641.218 421.35C641.218 438.165 627.396 451.8 610.332 451.8H519.323C502.259 451.8 488.437 438.165 488.437 421.35V331.65C488.437 314.835 502.259 301.2 519.323 301.2H610.332C627.396 301.2 641.218 314.835 641.218 331.65V421.35ZM763.113 301.2H672.105C655.041 301.2 641.218 287.565 641.218 270.75V181.05C641.218 164.235 627.396 150.6 610.332 150.6H519.323C502.259 150.6 488.437 136.965 488.437 120.15V30.4502C488.437 13.6353 474.614 0 457.55 0H366.541C349.477 0 335.655 13.6353 335.655 30.4502V120.15C335.655 136.965 349.477 150.6 366.541 150.6H457.55C474.614 150.6 488.437 164.235 488.437 181.05V270.75C488.437 287.565 474.614 301.2 457.55 301.2H366.541C349.477 301.2 335.655 314.835 335.655 331.65V421.35C335.655 438.165 349.477 451.8 366.541 451.8H457.55C474.614 451.8 488.437 465.435 488.437 482.25V571.95C488.437 588.765 474.614 602.4 457.55 602.4H366.541C349.477 602.4 335.655 616.035 335.655 632.85V722.55C335.655 739.365 349.477 753 366.541 753H457.55C474.614 753 488.437 739.365 488.437 722.55V632.85C488.437 616.035 502.259 602.4 519.323 602.4H610.332C627.396 602.4 641.218 588.765 641.218 571.95V482.25C641.218 465.435 655.041 451.8 672.105 451.8H763.113C780.177 451.8 794 438.165 794 421.35V331.65C794 314.835 780.177 301.2 763.113 301.2Z" fill="white"/>
</svg>
