<svg xmlns="http://www.w3.org/2000/svg" width="156" height="48" viewBox="0 0 156 48">
    <g data-name="그룹 17">
        <path data-name="패스 2" d="M292.6 72.732h1.879v6.146h1.2v-6.146h1.879v-1.067H292.6zm8.473.939a2.751 2.751 0 0 0 0 5.5 2.614 2.614 0 0 0 2.509-1.831h-1.107a1.637 1.637 0 0 1-1.4.851 1.7 1.7 0 0 1-1.631-1.458h4.283a2.6 2.6 0 0 0-.734-2.251 2.765 2.765 0 0 0-1.918-.813m-1.565 2.163a1.7 1.7 0 0 1 1.565-1.175 1.614 1.614 0 0 1 1.584 1.175zm7.823 2.3a1.7 1.7 0 0 1-1.679-1.713 1.684 1.684 0 0 1 1.679-1.712 1.635 1.635 0 0 1 1.364.89l1.126-.01a2.682 2.682 0 1 0-2.528 3.582 2.633 2.633 0 0 0 2.538-1.918h-1.136a1.465 1.465 0 0 1-1.364.881m6.24-4.58a2.278 2.278 0 0 0-1.755.842v-2.67h-1.107v7.154h1.107v-3.034a1.3 1.3 0 1 1 2.6.009v3.024h1.116V75.57a2 2 0 0 0-1.966-2.016m5.668.108a2.257 2.257 0 0 0-1.746.871v-.685h-1.116v5.138h1.106v-2.995a1.3 1.3 0 1 1 2.6.01v2.985h1.12v-3.308a2 2 0 0 0-1.965-2.016m5.5-.059a2.78 2.78 0 1 0 2.709 2.78 2.744 2.744 0 0 0-2.709-2.78m0 4.531a1.752 1.752 0 1 1 1.708-1.752 1.741 1.741 0 0 1-1.708 1.752m3.416.744h1.163v-7.154h-1.163zm4.586-5.275a2.78 2.78 0 1 0 2.71 2.78 2.743 2.743 0 0 0-2.71-2.78m0 4.531a1.752 1.752 0 1 1 1.708-1.752 1.741 1.741 0 0 1-1.708 1.752m7.966-3.406a2.393 2.393 0 0 0-1.993-.9 2.678 2.678 0 0 0-.009 5.344 2.723 2.723 0 0 0 2-.861v.205a1.687 1.687 0 0 1-1.679 1.644 1.808 1.808 0 0 1-1.574-.969h-1.155a2.83 2.83 0 0 0 2.786 1.947 2.749 2.749 0 0 0 2.738-2.564v-4.59H340.7zm-1.688 3.493a1.722 1.722 0 1 1 1.717-1.722 1.731 1.731 0 0 1-1.717 1.722m7.518-4.266-1.308 3.689-1.287-3.68h-1.212l1.946 5.138-.773 2.006h1.145l2.681-7.153zM244 72.759l-3.787-10.821h-3.729l5.824 15.1h3.414l5.795-15.1h-3.7zm9.3 3.932h3.5V62.2h-3.5zm13.4-2.181a5.061 5.061 0 0 1-5.049-5.022 5 5 0 0 1 5.049-5.023 4.919 4.919 0 0 1 4.1 2.612l3.386-.028a8.028 8.028 0 1 0-7.6 10.5 7.886 7.886 0 0 0 7.631-5.626h-3.414a4.4 4.4 0 0 1-4.1 2.583m16.877-6.314c-1.492-.545-3.5-1.349-3.557-2.037-.172-1.063.774-1.894 2.266-1.866a2.25 2.25 0 0 1 2.238 2.238H288a5.407 5.407 0 0 0-5.709-5.109c-3.213 0-5.68 2.1-5.68 4.679 0 3.128 3.672 3.846 5.881 4.736 1.2.488 2.18 1.033 2.266 1.866.172.976-.86 1.98-2.467 1.98a2.523 2.523 0 0 1-2.668-2.525h-3.353a5.773 5.773 0 0 0 6.024 5.4c3.558 0 5.881-2.354 5.881-4.88 0-2.812-2.611-3.76-4.59-4.477m-28.337-12.23a1.885 1.885 0 1 0 1.881 1.885 1.883 1.883 0 0 0-1.881-1.885" transform="translate(-193.416 -43.446)" style="fill-rule:evenodd;fill:#042157"/>
        <path data-name="패스 3" d="M224.329 64.284h-3.748a1.266 1.266 0 0 1-1.272-1.259v-3.711a1.265 1.265 0 0 0-1.272-1.259h-3.747a1.265 1.265 0 0 1-1.27-1.255v-3.715a1.266 1.266 0 0 0-1.272-1.259H208a1.266 1.266 0 0 0-1.271 1.259V56.8A1.265 1.265 0 0 0 208 58.055h3.748a1.265 1.265 0 0 1 1.272 1.259v3.711a1.266 1.266 0 0 1-1.272 1.259H208a1.265 1.265 0 0 0-1.271 1.259v3.711A1.265 1.265 0 0 0 208 70.512h3.748a1.266 1.266 0 0 1 1.272 1.259v3.711a1.265 1.265 0 0 1-1.272 1.259H208A1.265 1.265 0 0 0 206.729 78v3.71A1.266 1.266 0 0 0 208 82.97h3.748a1.266 1.266 0 0 0 1.272-1.259V78a1.265 1.265 0 0 1 1.271-1.259h3.747a1.265 1.265 0 0 0 1.272-1.259v-3.711a1.266 1.266 0 0 1 1.272-1.259h3.748a1.265 1.265 0 0 0 1.272-1.259v-3.711a1.265 1.265 0 0 0-1.272-1.259m-5.019 4.97a1.265 1.265 0 0 1-1.272 1.259h-3.747a1.265 1.265 0 0 1-1.271-1.259v-3.711a1.265 1.265 0 0 1 1.271-1.259h3.747a1.265 1.265 0 0 1 1.272 1.259zm-21.681-3.447h-3.452a1.266 1.266 0 0 0-1.272 1.259v.665a1.266 1.266 0 0 0 1.272 1.259h3.452a1.265 1.265 0 0 0 1.27-1.259v-.665a1.265 1.265 0 0 0-1.271-1.259m6.29 6.228h-.671a1.266 1.266 0 0 0-1.272 1.259v.665a1.266 1.266 0 0 0 1.272 1.259h.671a1.266 1.266 0 0 0 1.272-1.259v-.665a1.266 1.266 0 0 0-1.272-1.259m0-12.457h-.671a1.266 1.266 0 0 0-1.272 1.259v.664a1.265 1.265 0 0 0 1.272 1.259h.671a1.265 1.265 0 0 0 1.272-1.259v-.664a1.266 1.266 0 0 0-1.272-1.259" transform="translate(-192.905 -43.398)" style="fill:#ef4c2b;fill-rule:evenodd"/>
    </g>
    <path data-name="사각형 51" style="fill:none" d="M0 0h156v48H0z"/>
</svg>
