<svg width="13" height="13" viewBox="0 0 13 13" fill="none" xmlns="http://www.w3.org/2000/svg">
<path d="M12.1797 0.995605H12.1562C12.3906 1.04248 12.6016 1.18311 12.7656 1.37061C12.9062 1.55811 13 1.79248 13 2.05029C13 3.94873 12.5078 5.70654 11.5703 7.30029C10.6328 8.89404 9.39062 10.1362 7.84375 11.0269C6.20312 11.9878 4.44531 12.4565 2.57031 12.4565C2.3125 12.4565 2.07812 12.3862 1.89062 12.2222C1.70312 12.0815 1.58594 11.8706 1.53906 11.6128L1.02344 9.40967C0.953125 9.17529 0.976562 8.91748 1.09375 8.68311C1.21094 8.44873 1.39844 8.28467 1.65625 8.19092L4.02344 7.15967C4.23438 7.06592 4.46875 7.06592 4.70312 7.11279C4.9375 7.18311 5.125 7.30029 5.28906 7.46436L6.03906 8.40186C7.30469 7.74561 8.26562 6.76123 8.96875 5.49561L8.03125 4.74561C7.84375 4.60498 7.70312 4.39404 7.65625 4.15967C7.60938 3.92529 7.63281 3.71436 7.72656 3.47998L8.73438 1.11279C8.82812 0.878418 8.99219 0.690918 9.22656 0.57373C9.46094 0.456543 9.69531 0.433105 9.95312 0.47998L12.1797 0.995605ZM2.61719 11.3315C4.28125 11.3315 5.82812 10.9097 7.28125 10.0659C8.66406 9.24561 9.76562 8.14404 10.6094 6.73779C11.4531 5.30811 11.875 3.76123 11.875 2.07373L9.74219 1.58154L8.75781 3.90186L10.3516 5.19092C9.8125 6.36279 9.20312 7.27686 8.5 7.95654C7.79688 8.65967 6.88281 9.26904 5.73438 9.80811L4.44531 8.21436L2.125 9.19873L2.61719 11.3315Z" fill="#EF4C2B"/>
</svg>
