<svg width="33" height="32" viewBox="0 0 33 32" fill="none" xmlns="http://www.w3.org/2000/svg">
<path fill-rule="evenodd" clip-rule="evenodd" d="M31.424 12.886H27.676C27.3404 12.8876 27.0179 12.7559 26.7794 12.5198C26.5408 12.2837 26.4058 11.9626 26.404 11.627V7.91599C26.4032 7.74978 26.3697 7.58536 26.3053 7.43212C26.2409 7.27888 26.147 7.13982 26.0289 7.0229C25.9107 6.90598 25.7707 6.81348 25.6168 6.7507C25.4629 6.68791 25.2982 6.65607 25.132 6.65699H21.385C21.0503 6.65833 20.7288 6.52701 20.4908 6.29179C20.2527 6.05657 20.1176 5.73662 20.115 5.40199V1.68699C20.1131 1.3514 19.9781 1.03028 19.7396 0.794196C19.5011 0.558115 19.1786 0.426397 18.843 0.427993H15.095C14.7596 0.426663 14.4373 0.558499 14.199 0.794551C13.9607 1.0306 13.8258 1.35157 13.824 1.68699V5.40199C13.8266 5.7368 13.9619 6.0569 14.2001 6.29214C14.4384 6.52739 14.7602 6.65859 15.095 6.65699H18.843C19.0092 6.65607 19.1739 6.68791 19.3278 6.7507C19.4817 6.81348 19.6217 6.90598 19.7399 7.0229C19.858 7.13982 19.9519 7.27888 20.0163 7.43212C20.0807 7.58536 20.1142 7.74978 20.115 7.91599V11.627C20.1131 11.9626 19.9781 12.2837 19.7396 12.5198C19.5011 12.7559 19.1786 12.8876 18.843 12.886H15.095C14.9288 12.8852 14.7642 12.9171 14.6104 12.98C14.4566 13.0428 14.3167 13.1353 14.1987 13.2523C14.0807 13.3692 13.9869 13.5082 13.9226 13.6613C13.8583 13.8145 13.8248 13.9789 13.824 14.145V17.856C13.8258 18.1913 13.9607 18.5122 14.1991 18.7481C14.4374 18.984 14.7596 19.1156 15.095 19.114H18.843C19.1786 19.1124 19.5011 19.2441 19.7396 19.4802C19.9781 19.7163 20.1131 20.0374 20.115 20.373V24.084C20.1142 24.2502 20.0807 24.4146 20.0163 24.5679C19.9519 24.7211 19.858 24.8602 19.7399 24.9771C19.6217 25.094 19.4817 25.1865 19.3278 25.2493C19.1739 25.3121 19.0092 25.3439 18.843 25.343H15.095C14.9288 25.3422 14.7642 25.3741 14.6104 25.437C14.4566 25.4998 14.3167 25.5923 14.1987 25.7093C14.0807 25.8262 13.9869 25.9652 13.9226 26.1184C13.8583 26.2715 13.8248 26.4359 13.824 26.602V30.312C13.8256 30.6476 13.9603 30.9688 14.1987 31.2051C14.437 31.4413 14.7594 31.5733 15.095 31.572H18.843C19.1786 31.5736 19.5011 31.4419 19.7396 31.2058C19.9781 30.9697 20.1131 30.6486 20.115 30.313V26.602C20.1158 26.4359 20.1493 26.2715 20.2136 26.1184C20.2779 25.9652 20.3717 25.8262 20.4897 25.7093C20.6077 25.5923 20.7476 25.4998 20.9014 25.437C21.0552 25.3741 21.2198 25.3422 21.386 25.343H25.133C25.2992 25.3439 25.4639 25.3121 25.6178 25.2493C25.7717 25.1865 25.9117 25.094 26.0299 24.9771C26.148 24.8602 26.2419 24.7211 26.3063 24.5679C26.3707 24.4146 26.4042 24.2502 26.405 24.084V20.373C26.4068 20.0374 26.5418 19.7163 26.7804 19.4802C27.0189 19.2441 27.3414 19.1124 27.677 19.114H31.425C31.5912 19.1149 31.7559 19.0831 31.9098 19.0203C32.0637 18.9575 32.2037 18.865 32.3219 18.7481C32.44 18.6312 32.5339 18.4921 32.5983 18.3389C32.6627 18.1856 32.6962 18.0212 32.697 17.855V14.144C32.6962 13.9778 32.6627 13.8134 32.5983 13.6601C32.5339 13.5069 32.44 13.3678 32.3219 13.2509C32.2037 13.134 32.0637 13.0415 31.9098 12.9787C31.7559 12.9159 31.5912 12.8841 31.425 12.885M26.406 17.855C26.4052 18.0212 26.3717 18.1856 26.3073 18.3389C26.2429 18.4921 26.149 18.6312 26.0309 18.7481C25.9127 18.865 25.7727 18.9575 25.6188 19.0203C25.4649 19.0831 25.3002 19.1149 25.134 19.114H21.387C21.2209 19.1148 21.0562 19.0828 20.9024 19.02C20.7486 18.9572 20.6087 18.8646 20.4907 18.7477C20.3727 18.6308 20.2789 18.4918 20.2146 18.3386C20.1503 18.1855 20.1168 18.0211 20.116 17.855V14.144C20.1168 13.9779 20.1503 13.8135 20.2146 13.6603C20.2789 13.5072 20.3727 13.3682 20.4907 13.2513C20.6087 13.1343 20.7486 13.0418 20.9024 12.979C21.0562 12.9161 21.2209 12.8842 21.387 12.885H25.134C25.3002 12.8841 25.4649 12.9159 25.6188 12.9787C25.7727 13.0415 25.9127 13.134 26.0309 13.2509C26.149 13.3678 26.2429 13.5069 26.3073 13.6601C26.3717 13.8134 26.4052 13.9778 26.406 14.144V17.855ZM4.72498 14.408H1.27296C0.937372 14.4064 0.614876 14.5381 0.376358 14.7742C0.13784 15.0103 0.00282836 15.3314 0.000976562 15.667V16.332C0.00282836 16.6676 0.13784 16.9887 0.376358 17.2248C0.614876 17.4609 0.937372 17.5926 1.27296 17.591H4.72498C5.0603 17.5923 5.38243 17.4605 5.62057 17.2244C5.85872 16.9883 5.99338 16.6673 5.99496 16.332V15.667C5.99418 15.5009 5.96069 15.3365 5.89639 15.1834C5.83209 15.0302 5.73825 14.8912 5.62022 14.7743C5.5022 14.6573 5.36231 14.5648 5.20853 14.502C5.05475 14.4391 4.89009 14.4072 4.72397 14.408M11.014 20.636H10.343C10.0074 20.6344 9.68488 20.7661 9.44637 21.0022C9.20785 21.2383 9.07282 21.5594 9.07097 21.895V22.56C9.07282 22.8956 9.20785 23.2167 9.44637 23.4528C9.68488 23.6889 10.0074 23.8206 10.343 23.819H11.014C11.3496 23.8206 11.6721 23.6889 11.9106 23.4528C12.1491 23.2167 12.2841 22.8956 12.286 22.56V21.895C12.2841 21.5594 12.1491 21.2383 11.9106 21.0022C11.6721 20.7661 11.3496 20.6344 11.014 20.636ZM11.014 8.17899H10.343C10.0074 8.1774 9.68488 8.30911 9.44637 8.5452C9.20785 8.78128 9.07282 9.1024 9.07097 9.43799V10.102C9.07175 10.2682 9.10529 10.4326 9.16965 10.5859C9.23401 10.7391 9.32795 10.8782 9.44608 10.9951C9.56421 11.112 9.70421 11.2045 9.85811 11.2673C10.012 11.3301 10.1768 11.3619 10.343 11.361H11.014C11.1802 11.3619 11.3449 11.3301 11.4988 11.2673C11.6527 11.2045 11.7927 11.112 11.9109 10.9951C12.029 10.8782 12.1229 10.7391 12.1873 10.5859C12.2516 10.4326 12.2852 10.2682 12.286 10.102V9.43799C12.2841 9.1024 12.1491 8.78128 11.9106 8.5452C11.6721 8.30911 11.3496 8.1774 11.014 8.17899Z" fill="#EF4C2B"/>
</svg>
