<svg width="274" height="48" viewBox="0 0 274 48" fill="none" xmlns="http://www.w3.org/2000/svg">
<g clip-path="url(#clip0_2064_4052)">
<path fill-rule="evenodd" clip-rule="evenodd" d="M16.53 11.63H15.52C14.47 11.63 13.62 12.47 13.61 13.52V14.52C13.61 15.57 14.47 16.41 15.52 16.41H16.53C17.58 16.41 18.43 15.57 18.44 14.52V13.52C18.44 12.47 17.58 11.63 16.53 11.63ZM16.53 30.33H15.52C14.47 30.33 13.62 31.17 13.61 32.22V33.22C13.61 34.27 14.47 35.11 15.52 35.11H16.53C17.58 35.11 18.43 34.27 18.44 33.22V32.22C18.44 31.17 17.58 30.33 16.53 30.33ZM7.09 20.98H1.91C0.86 20.98 0.01 21.82 0 22.87V23.87C0 24.92 0.86 25.76 1.91 25.76H7.09C8.14 25.76 8.99 24.92 9 23.87V22.87C9 21.82 8.14 20.98 7.09 20.98ZM39.62 26.15C39.62 27.2 38.76 28.04 37.71 28.04H32.09C31.04 28.04 30.19 27.2 30.18 26.15V20.58C30.18 19.53 31.04 18.69 32.09 18.69H37.71C38.76 18.69 39.61 19.53 39.62 20.58V26.15ZM47.16 18.69H41.54C40.49 18.69 39.64 17.85 39.63 16.8V11.23C39.63 10.18 38.77 9.34 37.72 9.34H32.1C31.05 9.34 30.2 8.5 30.19 7.45V1.89C30.18 0.84 29.33 0 28.28 0H22.65C21.6 0 20.75 0.84 20.74 1.89V7.46C20.74 8.51 21.6 9.35 22.65 9.35H28.28C29.33 9.35 30.18 10.19 30.19 11.24V16.81C30.19 17.86 29.33 18.7 28.28 18.7H22.65C21.6 18.7 20.75 19.54 20.74 20.59V26.16C20.74 27.21 21.6 28.05 22.65 28.05H28.28C29.33 28.05 30.18 28.89 30.19 29.94V35.51C30.19 36.56 29.33 37.4 28.28 37.4H22.65C21.6 37.4 20.75 38.24 20.74 39.29V44.86C20.74 45.91 21.6 46.75 22.65 46.75H28.28C29.33 46.75 30.18 45.91 30.19 44.86V39.29C30.19 38.24 31.05 37.4 32.1 37.4H37.72C38.77 37.4 39.62 36.56 39.63 35.51V29.94C39.63 28.89 40.49 28.05 41.54 28.05H47.16C48.21 28.05 49.06 27.21 49.07 26.16V20.59C49.07 19.54 48.21 18.7 47.16 18.7" fill="#E24C2D"/>
<path fill-rule="evenodd" clip-rule="evenodd" d="M84.7598 29.7499L77.3699 8.62988H70.0898L81.4498 38.0999H88.1199L99.4298 8.62988H92.2098L84.7598 29.7499Z" fill="#18284D"/>
<path d="M109.75 9.12988H102.92V37.4299H109.75V9.12988Z" fill="#18284D"/>
<path fill-rule="evenodd" clip-rule="evenodd" d="M129.079 33.1699C123.659 33.1599 119.259 28.7799 119.219 23.3599C119.199 17.9699 123.559 13.5699 128.949 13.5499H129.069C133.439 13.7699 135.619 16.3499 137.079 18.6499L143.689 18.5899C141.449 12.4299 136.069 7.60986 128.849 7.60986C120.149 7.60986 113.109 14.6599 113.109 23.3599C113.109 32.0499 120.159 39.0999 128.849 39.0999C135.709 39.1699 141.779 34.6899 143.749 28.1199H137.079C135.659 31.2499 132.509 33.2299 129.069 33.1599" fill="#18284D"/>
<path fill-rule="evenodd" clip-rule="evenodd" d="M162.03 20.8499C159.12 19.7899 155.2 18.2199 155.09 16.8699C154.75 14.7999 156.6 13.1699 159.51 13.2299C161.92 13.2499 163.86 15.1899 163.88 17.5999H170.66C170.66 14.0099 167.58 7.62988 159.51 7.62988C153.24 7.62988 148.42 11.7199 148.42 16.7599C148.42 22.8699 155.59 24.2699 159.9 26.0099C162.25 26.9599 164.16 28.0299 164.32 29.6499C164.66 31.5499 162.64 33.5199 159.5 33.5199C156.78 33.6799 154.46 31.5999 154.3 28.8799C154.3 28.7799 154.3 28.6799 154.3 28.5899H147.75C147.75 32.6799 151.45 39.1199 159.51 39.1199C166.45 39.1199 170.99 34.5299 170.99 29.5999C170.99 24.1099 165.89 22.2599 162.03 20.8599" fill="#18284D"/>
<path d="M181.689 43.6702H183.769V33.2202H187.019V31.4102H178.449V33.2202H181.689V43.6702Z" fill="#18284D"/>
<path d="M197.659 40.0201C197.859 38.3201 197.279 37.0401 196.389 36.1901C195.469 35.2601 194.169 34.8101 193.079 34.8101C190.529 34.8101 188.449 36.9201 188.449 39.4901C188.449 42.0601 190.529 44.1701 193.079 44.1701C195.199 44.1701 196.689 42.9201 197.409 41.0601H195.499C195.189 41.6601 194.309 42.5101 193.079 42.5101C191.549 42.5101 190.529 41.3501 190.259 40.0301H197.659V40.0201ZM190.379 38.4901C190.789 37.3901 191.779 36.4901 193.079 36.4901C194.379 36.4901 195.469 37.2401 195.819 38.4901H190.379Z" fill="#18284D"/>
<path d="M208.18 38.0803C207.52 36.2503 205.94 34.8203 203.81 34.8203C201.27 34.8203 199.18 36.9203 199.18 39.5003C199.18 42.0803 201.27 44.1803 203.81 44.1803C205.94 44.1803 207.65 42.7803 208.19 40.9203H206.23C205.87 41.6303 205.18 42.4203 203.87 42.4203C202.49 42.4203 200.97 41.3103 200.97 39.5103C200.97 37.7103 202.48 36.5503 203.87 36.6003C205.15 36.6703 205.8 37.4303 206.23 38.1103L208.17 38.0903L208.18 38.0803Z" fill="#18284D"/>
<path d="M218.049 38.04C218.049 36.33 216.679 34.61 214.659 34.61C212.639 34.61 211.679 35.97 211.629 36.04V31.5H209.719V43.66H211.629V38.5C211.629 37.42 212.499 36.25 213.889 36.25C215.279 36.25 216.129 37.46 216.129 38.51V43.65H218.059V38.03L218.049 38.04Z" fill="#18284D"/>
<path d="M227.84 38.2303C227.84 36.5203 226.47 34.8003 224.45 34.8003C222.54 34.8003 221.48 36.2203 221.44 36.2803V35.1203H219.51V43.8503H221.42V38.7603C221.42 37.6903 222.29 36.5303 223.68 36.5303C225.07 36.5303 225.92 37.7403 225.92 38.7803V43.8503H227.85V38.2303H227.84Z" fill="#18284D"/>
<path d="M233.94 36.45C235.55 36.45 236.89 37.8 236.89 39.43C236.89 41.06 235.55 42.41 233.94 42.41C232.33 42.41 230.99 41.06 230.99 39.43C230.99 37.8 232.33 36.45 233.94 36.45ZM229.26 39.43C229.26 42.04 231.35 44.16 233.94 44.16C236.53 44.16 238.62 42.05 238.62 39.43C238.62 36.81 236.53 34.71 233.94 34.71C231.35 34.71 229.26 36.82 229.26 39.43Z" fill="#18284D"/>
<path d="M241.84 31.5103H239.83V43.6703H241.84V31.5103Z" fill="#18284D"/>
<path d="M247.748 36.45C249.358 36.45 250.698 37.8 250.698 39.43C250.698 41.06 249.358 42.41 247.748 42.41C246.138 42.41 244.798 41.06 244.798 39.43C244.798 37.8 246.138 36.45 247.748 36.45ZM243.068 39.43C243.068 42.04 245.158 44.16 247.748 44.16C250.338 44.16 252.428 42.05 252.428 39.43C252.428 36.81 250.338 34.71 247.748 34.71C245.158 34.71 243.068 36.82 243.068 39.43Z" fill="#18284D"/>
<path d="M255.608 39.6303C255.608 38.0203 256.958 36.7003 258.588 36.7003C260.218 36.7003 261.558 38.0103 261.558 39.6303C261.558 41.2503 260.228 42.5603 258.588 42.5603C256.948 42.5603 255.608 41.2503 255.608 39.6303ZM261.508 43.0503C261.508 44.5603 260.178 45.8403 258.608 45.8403C256.728 45.8403 255.938 44.2803 255.888 44.1903H253.898C253.948 44.3603 254.938 47.5003 258.708 47.5003C261.638 47.5003 263.438 44.9903 263.438 43.1403V35.3403H261.508V36.6003C260.438 35.2903 259.108 35.0703 258.068 35.0703C255.938 35.0703 253.738 37.0203 253.738 39.6103C253.738 42.2003 255.978 44.1403 258.058 44.1503C259.128 44.1703 260.578 43.7303 261.518 42.6803V43.0303L261.508 43.0503Z" fill="#18284D"/>
<path d="M265 35.3203L268.36 44.0503L267.02 47.4603H269L273.63 35.3003H271.57L269.31 41.5703L267.09 35.3203H265Z" fill="#18284D"/>
</g>
<defs>
<clipPath id="clip0_2064_4052">
<rect width="273.63" height="47.51" fill="white"/>
</clipPath>
</defs>
</svg>
